{"title":"Terug naar de Kust-AC3-5,1-DVDRip-2009","uid":5359359,"size":1463375065,"categoryP":"video","categoryS":"movies","magnet":"?xt=urn:btih:c9cb78e209f1c6299eecf462b33d9d5fb872cfda&amp;dn=Terug+naar+de+Kust-AC3-5%2C1-DVDRip-2009&amp;tr=udp%3A%2F%2Ftracker.openbittorrent.com%3A80&amp;tr=udp%3A%2F%2Fopen.demonii.com%3A1337&amp;tr=udp%3A%2F%2Ftracker.coppersurfer.tk%3A6969&amp;tr=udp%3A%2F%2Fexodus.desync.com%3A6969","seeders":1,"leechers":0,"uploader":"FatFreddy31","files":-1,"time":1266056670,"description":" &lt;a href=&quot;http://www.imdb.com/title/tt1388411/&quot; rel=&quot;nofollow&quot; target=&quot;_NEW&quot;&gt;http://www.imdb.com/title/tt1388411/&lt;/a&gt;\n &lt;a href=&quot;\nhttp://www.moviemeter.nl/film/56838&quot; rel=&quot;nofollow&quot; target=&quot;_NEW&quot;&gt;\nhttp://www.moviemeter.nl/film/56838&lt;/a&gt;\n\nUser Rating:7.0/10 - 137 votes\n\nNederland\nThriller\n110 minuten\n\nGeregisseerd door Will Koopman\nMet Linda de Mol, Ariane Schluter en Huub Stapel\n\nDe alleenstaande Maria Vos (Linda de Mol) wordt door een onbekende met de dood bedreigd. Zij vlucht met haar kinderen naar haar voormalige ouderlijk huis, waar ze onderduikt bij haar oudere zus Ans (Ariane Schluter). Terwijl het winterse verblijf in de villa aan zee Maria confronteert met traumatische jeugd herinneringen en haar omgeving steeds meer aan haar geestelijke gezondheid begint te twijfelen, komt haar belager steeds dichterbij...\n\nInfo:\n\nCover bijgesloten.\n\nGeneral\nComplete name                    : Terug naar de Kust-AC3-5,1-DVDRip-2009.avi\nFormat                           : AVI\nFormat/Info                      : Audio Video Interleave\nFile size                        : 1.36 GiB\nDuration                         : 1h 45mn\nOverall bit rate                 : 1 854 Kbps\nWriting application              : VirtualDubMod 1.5.4.1 (build 2178/release)\nWriting library                  : VirtualDubMod build 2178/release\n\nVideo\nID                               : 0\nFormat                           : MPEG-4 Visual\nFormat profile                   : Simple@L3\nFormat settings, BVOP            : No\nFormat settings, QPel            : No\nFormat settings, GMC             : No warppoints\nFormat settings, Matrix          : Default (H.263)\nCodec ID                         : XVID\nCodec ID/Hint                    : XviD\nDuration                         : 1h 45mn\nBit rate                         : 1 460 Kbps\nWidth                            : 704 pixels\nHeight                           : 400 pixels\nDisplay aspect ratio             : 16:9\nFrame rate                       : 25.000 fps\nResolution                       : 8 bits\nColorimetry                      : 4:2:0\nScan type                        : Progressive\nBits/(Pixel*Frame)               : 0.207\nStream size                      : 1.07 GiB (79%)\nWriting library                  : XviD 1.1.2 (UTC 2006-11-01)\n\nAudio\nID                               : 1\nFormat                           : AC-3\nFormat/Info                      : Audio Coding 3\nCodec ID                         : 2000\nDuration                         : 1h 45mn\nBit rate mode                    : Constant\nBit rate                         : 384 Kbps\nChannel(s)                       : 6 channels\nChannel positions                : Front: L C R, Surround: L R, LFE\nSampling rate                    : 48.0 KHz\nStream size                      : 289 MiB (21%)\nAlignment                        : Split accross interleaves\nInterleave, duration             : 40 ms (1.00 video frame)\nInterleave, preload duration     : 500 ms\n\nVeel plezier met deze film.","torrent":{"xt":"urn:btih:c9cb78e209f1c6299eecf462b33d9d5fb872cfda","amp;dn":"Terug+naar+de+Kust-AC3-5%2C1-DVDRip-2009","amp;tr":["udp%3A%2F%2Ftracker.openbittorrent.com%3A80","udp%3A%2F%2Fopen.demonii.com%3A1337","udp%3A%2F%2Ftracker.coppersurfer.tk%3A6969","udp%3A%2F%2Fexodus.desync.com%3A6969"],"infoHash":"c9cb78e209f1c6299eecf462b33d9d5fb872cfda","infoHashBuffer":{"type":"Buffer","data":[201,203,120,226,9,241,198,41,158,236,244,98,179,61,157,95,184,114,207,218]},"announce":[],"urlList":[]}}